<svg width="22" height="22" viewBox="0 0 22 22" fill="none" xmlns="http://www.w3.org/2000/svg">
<g opacity="0.1" clip-path="url(#clip0)">
<path d="M17.5133 3.76739C16.1782 1.46324 13.8066 0.0555371 11.1694 0.00174023C11.0568 -0.000580078 10.9435 -0.000580078 10.8309 0.00174023C8.19375 0.0555371 5.82222 1.46324 4.48701 3.76739C3.12224 6.1226 3.0849 8.95166 4.38711 11.3352L9.84255 21.3206C9.845 21.325 9.84745 21.3294 9.84998 21.3338C10.09 21.751 10.52 22 11.0003 22C11.4805 22 11.9105 21.7509 12.1504 21.3338C12.153 21.3294 12.1554 21.325 12.1579 21.3206L17.6133 11.3352C18.9154 8.95166 18.8781 6.1226 17.5133 3.76739ZM11.0002 9.96877C9.29427 9.96877 7.90642 8.58092 7.90642 6.87502C7.90642 5.16912 9.29427 3.78127 11.0002 3.78127C12.7061 3.78127 14.0939 5.16912 14.0939 6.87502C14.0939 8.58092 12.7061 9.96877 11.0002 9.96877Z" fill="black"/>
</g>
<defs>
<clipPath id="clip0">
<rect width="22" height="22" fill="white"/>
</clipPath>
</defs>
</svg>
