<svg width="23" height="21" viewBox="0 0 23 21" fill="none" xmlns="http://www.w3.org/2000/svg">
<path opacity="0.1" d="M11.594 0.291999C13.662 0.291999 15.4953 0.717333 17.094 1.568C18.7073 2.404 19.954 3.548 20.834 5C21.7287 6.452 22.176 8.058 22.176 9.818C22.176 11.1673 21.9413 12.326 21.472 13.294C21.0173 14.2473 20.394 14.9733 19.602 15.472C18.8247 15.956 17.9593 16.198 17.006 16.198C16.17 16.198 15.4587 16.0367 14.872 15.714C14.2853 15.3913 13.838 14.9147 13.53 14.284C12.8847 15.56 11.77 16.198 10.186 16.198C9.37933 16.198 8.61667 15.978 7.898 15.538C7.194 15.0833 6.622 14.438 6.182 13.602C5.742 12.766 5.522 11.8053 5.522 10.72C5.522 9.63467 5.73467 8.68133 6.16 7.86C6.6 7.024 7.172 6.386 7.876 5.946C8.59467 5.49133 9.36467 5.264 10.186 5.264C11.3447 5.264 12.2467 5.62333 12.892 6.342V5.462H17.116V11.754C17.116 12.5607 17.402 12.964 17.974 12.964C18.326 12.964 18.5973 12.7367 18.788 12.282C18.9933 11.8273 19.096 11.028 19.096 9.884C19.096 8.564 18.7807 7.39067 18.15 6.364C17.534 5.33733 16.654 4.538 15.51 3.966C14.3807 3.37933 13.0753 3.086 11.594 3.086C10.1127 3.086 8.8 3.40867 7.656 4.054C6.512 4.68467 5.62467 5.56467 4.994 6.694C4.36333 7.80867 4.048 9.05533 4.048 10.434C4.048 11.8567 4.356 13.1327 4.972 14.262C5.60267 15.3767 6.48267 16.2493 7.612 16.88C8.74133 17.5107 10.0393 17.826 11.506 17.826C13.046 17.826 14.5273 17.5033 15.95 16.858L16.874 19.564C16.214 19.8867 15.3927 20.1433 14.41 20.334C13.442 20.5247 12.474 20.62 11.506 20.62C9.35 20.62 7.44333 20.1727 5.786 19.278C4.14333 18.398 2.87467 17.188 1.98 15.648C1.08533 14.0933 0.638 12.3553 0.638 10.434C0.638 8.542 1.08533 6.826 1.98 5.286C2.88933 3.746 4.17267 2.52867 5.83 1.634C7.48733 0.739332 9.40867 0.291999 11.594 0.291999ZM11.396 12.744C11.8653 12.744 12.2467 12.568 12.54 12.216C12.8333 11.864 12.98 11.3653 12.98 10.72C12.98 10.0747 12.8333 9.58333 12.54 9.246C12.2467 8.894 11.8653 8.718 11.396 8.718C10.9267 8.718 10.5453 8.894 10.252 9.246C9.97333 9.58333 9.834 10.0747 9.834 10.72C9.834 11.3653 9.97333 11.864 10.252 12.216C10.5453 12.568 10.9267 12.744 11.396 12.744Z" fill="black"/>
</svg>
