<svg width="22" height="22" viewBox="0 0 22 22" fill="none" xmlns="http://www.w3.org/2000/svg">
<g opacity="0.1">
<path d="M7.03955 6.48824H10.3554V1.39648C8.97125 1.85101 7.72641 3.79397 7.03955 6.48824Z" fill="black"/>
<path d="M7.03955 15.5117C7.72641 18.206 8.97125 20.1489 10.3554 20.6035V15.5117H7.03955Z" fill="black"/>
<path d="M21.3555 7.77734H0.644531C0.288578 7.77734 0 8.06584 0 8.42188V13.5781C0 13.9341 0.288578 14.2227 0.644531 14.2227H21.3555C21.7114 14.2227 22 13.9341 22 13.5781V8.42188C22 8.06584 21.7114 7.77734 21.3555 7.77734ZM20.6 9.99921L19.3109 12.5773C19.2014 12.7958 18.9786 12.9336 18.7344 12.9336C18.4901 12.9336 18.2673 12.7958 18.1578 12.5773L17.4453 11.1523L16.7328 12.5773C16.5138 13.0142 15.7987 13.0142 15.5797 12.5773L14.3448 10.1069C14.2705 10.0157 14.2282 9.90112 14.2144 9.77883C14.2065 9.85334 14.1902 9.92823 14.1547 9.99921L12.8656 12.5773C12.7561 12.7958 12.5333 12.9336 12.2891 12.9336C12.0448 12.9336 11.822 12.7958 11.7125 12.5773L11 11.1523L10.2875 12.5773C10.0684 13.0142 9.35344 13.0142 9.13438 12.5773L7.84532 9.99921C7.81116 9.93094 7.79646 9.85884 7.78787 9.78716C7.77167 9.92604 7.71925 10.0526 7.63443 10.149L6.42026 12.5773C6.31078 12.7958 6.08798 12.9336 5.84375 12.9336C5.59952 12.9336 5.37672 12.7958 5.2672 12.5773L4.55469 11.1523L3.84218 12.5773C3.73265 12.7958 3.50986 12.9336 3.26562 12.9336C3.02139 12.9336 2.7986 12.7958 2.68907 12.5773L1.40001 9.99921C1.24077 9.68073 1.3698 9.29362 1.68829 9.13438C2.00612 8.97703 2.39263 9.10353 2.55312 9.42266L3.26562 10.8477L3.97813 9.42266C4.20617 8.96509 4.89285 8.94584 5.13124 9.42266L5.84375 10.8477L6.55626 9.42266C6.67206 9.19102 6.91565 9.06516 7.17436 9.06765C7.5075 9.08952 7.77232 9.36427 7.78632 9.69109C7.79402 9.46245 7.91459 9.24387 8.1336 9.13434C8.45273 8.97699 8.83854 9.10349 8.99843 9.42262L9.71094 10.8477L10.4234 9.42266C10.6425 8.98584 11.3575 8.98584 11.5766 9.42266L12.2891 10.8477L13.0016 9.42266C13.1608 9.10353 13.5479 8.97703 13.8664 9.13438C14.0836 9.24296 14.2032 9.45875 14.2129 9.6852C14.2254 9.36143 14.4556 9.09189 14.7866 9.07019C15.0522 9.06391 15.3279 9.19106 15.4437 9.42266L16.1562 10.8477L16.8688 9.42266C17.0878 8.98584 17.8028 8.98584 18.0219 9.42266L18.7344 10.8477L19.4469 9.42266C19.6068 9.10353 19.9926 8.97703 20.3117 9.13438C20.6302 9.29362 20.7592 9.68073 20.6 9.99921Z" fill="black"/>
<path d="M11.6445 15.5117V20.6035C13.0287 20.1489 14.2736 18.206 14.9604 15.5117H11.6445Z" fill="black"/>
<path d="M11.6445 1.39648V6.48824H14.9604C14.2736 3.79397 13.0287 1.85101 11.6445 1.39648Z" fill="black"/>
<path d="M5.71572 15.5117H1.05469C2.81645 19.3799 6.71754 22 11.0001 22C8.67176 22 6.63775 19.4359 5.71572 15.5117Z" fill="black"/>
<path d="M16.2843 15.5117C15.3623 19.4359 13.3283 22 11 22C15.2825 22 19.1836 19.3799 20.9454 15.5117H16.2843Z" fill="black"/>
<path d="M1.05469 6.48828H5.71572C6.63775 2.56412 8.67176 0 11.0001 0C6.71754 0 2.81645 2.62015 1.05469 6.48828Z" fill="black"/>
<path d="M11 0C13.3283 0 15.3623 2.56412 16.2843 6.48828H20.9454C19.1836 2.62015 15.2825 0 11 0Z" fill="black"/>
</g>
</svg>
